<?xml version="1.0"?>
<svg version="1.1" xmlns="http://www.w3.org/2000/svg" width="351" height="154" style=""><path fill="#0c0b0d" d="M31.92,73l-12.56,0l-2.48,0l0,28.12l2.48,0l0-14.08l12.56,0q3.04,0,5.04-2t2-5q0-2.72-2-4.84q-2.12-2.2-5.04-2.2z M31.92,84.56l-12.56,0l0-9.08l12.56,0q1.84,0,3.24,1.32q1.32,1.4,1.32,3.24q0,1.88-1.32,3.2q-1.4,1.32-3.24,1.32z M44.1936,101.08l19.56,0l0-2.04l-17.08,0l0-26.04l-2.48,0l0,28.08z M79.3472,72.84q-4.48,0-7.52,3.24q-3,3.2-3,7.8l0,17.12l2.52,0l0-12.56l16.08,0l0,12.56l2.52,0l0-17.12q0-4.6-3-7.8q-3.12-3.24-7.6-3.24z M87.4272,85.96l-16.08,0l0-2.08q0-3.44,2.32-5.96q2.36-2.56,5.68-2.56t5.76,2.56q2.32,2.52,2.32,5.96l0,2.08z M96.7008,101l2.48,0l0-16.96q0-3.36,2.56-6q2.56-2.56,5.92-2.56t6,2.56q2.56,2.64,2.56,6l0,16.96l2.48,0l0-16.96q0-4.56-3.24-7.8t-7.8-3.24q-4.48,0-7.72,3.24t-3.24,7.8l0,16.96z M125.1744,101l2.48,0l0-16.96q0-3.36,2.56-6q2.56-2.56,5.92-2.56t6,2.56q2.56,2.64,2.56,6l0,16.96l2.48,0l0-16.96q0-4.56-3.24-7.8t-7.8-3.24q-4.48,0-7.72,3.24t-3.24,7.8l0,16.96z M156.208,93.32q0-1.92,1.36-3.48q1.36-1.64,3.28-1.64l0.52,0l7.48,0l0-2.48l-7.48,0l-0.52,0q-2.04-0.4-3.34-1.76t-1.3-3.24q0-2.36,1.38-3.74t3.78-1.38l13.6,0l0-2.52l-13.6,0q-3.08,0-5.36,2.28q-2.28,2.2-2.28,5.36q0,2,0.76,3.64t2.24,2.36q-1.48,1.08-2.24,2.84t-0.76,3.76q0,3.12,2.28,5.32q2.32,2.32,5.36,2.32l13.6,0l0-2.64l-13.6,0q-2.4,0-3.78-1.36t-1.38-3.64z M192.4816,86.96l3,0q3.04,0,5.04-2t2-5.04q0-2.68-2-4.8q-2.12-2.2-5.04-2.2l-12.52,0l-2.48,0l0,28.08l2.48,0l0-14.04l6.52,0l8.52,14.04l3,0z M182.9616,84.48l0-9.04l12.52,0q1.84,0,3.24,1.32q1.32,1.32,1.32,3.16q0,1.92-1.32,3.24q-1.4,1.32-3.24,1.32l-12.52,0z"/><path fill="#" d=""/></svg>
