<?xml version="1.0" encoding="utf-8"?>
<!-- Generator: Adobe Illustrator 15.0.0, SVG Export Plug-In . SVG Version: 6.00 Build 0)  -->
<!DOCTYPE svg PUBLIC "-//W3C//DTD SVG 1.1//EN" "http://www.w3.org/Graphics/SVG/1.1/DTD/svg11.dtd">
<svg version="1.1" id="Layer_1" xmlns="http://www.w3.org/2000/svg" xmlns:xlink="http://www.w3.org/1999/xlink" x="0px" y="0px"
	 width="204.158px" height="48.629px" viewBox="8.394 2.388 204.158 48.629" enable-background="new 8.394 2.388 204.158 48.629"
	 xml:space="preserve">
<g>
	<path fill="#005596" d="M173.423,32.444c-0.062,0.473-0.158,0.943-0.273,1.408c-0.116,0.459-0.287,0.86-0.505,1.196
		c-0.226,0.328-0.526,0.546-0.904,0.635c-0.301,0.062-0.54,0.096-0.724,0.108c-0.178,0.016-0.35,0.016-0.506,0.016
		c-0.206,0-0.368,0.021-0.479,0.067c-0.117,0.041-0.178,0.117-0.178,0.218c0.008,0.178,0.076,0.302,0.218,0.364
		c0.138,0.06,0.309,0.096,0.521,0.089c0.334,0,0.689-0.008,1.079-0.021c0.383-0.014,0.772-0.025,1.148-0.041
		c0.383-0.015,0.73-0.026,1.054-0.042c0.32-0.014,0.581-0.02,0.777-0.02c0.253,0,0.609,0.015,1.06,0.035
		c0.458,0.02,0.964,0.033,1.531,0.055c0.56,0.02,1.135,0.034,1.714,0.034c0.309,0.008,0.555-0.028,0.726-0.089
		c0.172-0.063,0.26-0.185,0.26-0.363c-0.008-0.102-0.069-0.178-0.185-0.219c-0.117-0.048-0.26-0.067-0.43-0.067
		c-0.206,0-0.452-0.015-0.739-0.042c-0.288-0.027-0.615-0.081-0.984-0.164c-0.355-0.076-0.649-0.22-0.875-0.424
		c-0.232-0.206-0.348-0.507-0.354-0.89c0-0.32,0.015-0.627,0.034-0.929c0.021-0.301,0.049-0.636,0.088-0.997l2.135-16.318h0.163
		c0.294,0.621,0.607,1.306,0.957,2.043c0.349,0.737,0.706,1.489,1.06,2.241c0.355,0.751,0.688,1.462,1.004,2.126
		c0.307,0.669,0.574,1.236,0.799,1.708c0.219,0.479,0.369,0.808,0.444,0.984c0.09,0.198,0.239,0.52,0.452,0.956
		c0.217,0.438,0.47,0.956,0.771,1.546c0.301,0.595,0.615,1.215,0.949,1.879c0.336,0.656,0.67,1.297,0.992,1.935
		c0.327,0.628,0.622,1.209,0.895,1.729c0.274,0.52,0.492,0.943,0.656,1.264c0.321,0.622,0.601,1.12,0.827,1.482
		c0.226,0.369,0.43,0.561,0.608,0.566c0.117,0.008,0.232-0.048,0.349-0.163c0.116-0.123,0.26-0.349,0.438-0.685
		c0.177-0.326,0.424-0.813,0.732-1.448l8.938-18.614h0.164l2.46,18.041c0.081,0.573,0.096,0.997,0.054,1.285
		c-0.048,0.279-0.129,0.444-0.26,0.479c-0.143,0.062-0.251,0.123-0.333,0.198c-0.075,0.068-0.117,0.15-0.117,0.253
		c-0.007,0.122,0.076,0.218,0.239,0.286c0.172,0.069,0.492,0.123,0.949,0.165c0.281,0.02,0.648,0.042,1.115,0.063
		c0.464,0.02,0.978,0.042,1.544,0.055c0.566,0.02,1.148,0.032,1.736,0.054c0.587,0.015,1.146,0.028,1.681,0.041
		c0.533,0.008,0.997,0.021,1.396,0.027c0.389,0,0.674,0.008,0.853,0.008c0.294,0,0.549-0.035,0.752-0.104
		c0.197-0.068,0.307-0.184,0.313-0.348c0-0.117-0.068-0.198-0.191-0.232c-0.115-0.042-0.273-0.055-0.465-0.055
		c-0.267,0.007-0.606-0.016-1.024-0.068c-0.418-0.049-0.924-0.165-1.518-0.341c-0.402-0.115-0.731-0.343-0.984-0.665
		c-0.252-0.321-0.457-0.771-0.615-1.339c-0.15-0.566-0.293-1.278-0.408-2.139L203.275,5.92c-0.061-0.43-0.149-0.751-0.274-0.957
		c-0.122-0.211-0.28-0.314-0.463-0.314c-0.177,0-0.335,0.082-0.466,0.247c-0.13,0.165-0.28,0.41-0.438,0.737l-11.153,23.412
		L179.286,5.917c-0.178-0.348-0.329-0.62-0.45-0.806c-0.124-0.185-0.24-0.308-0.342-0.375c-0.103-0.063-0.206-0.096-0.314-0.09
		c-0.165,0-0.307,0.09-0.424,0.273c-0.123,0.177-0.212,0.444-0.273,0.792L173.423,32.444L173.423,32.444z M116.933,37.12
		c0.664,0,1.34-0.021,2.03-0.055c0.689-0.042,1.366-0.097,2.029-0.173c0.662-0.074,1.278-0.176,1.844-0.293
		c0.567-0.115,1.06-0.259,1.477-0.424c0.234-0.088,0.409-0.184,0.541-0.279c0.136-0.098,0.238-0.213,0.313-0.357
		c0.076-0.135,0.15-0.321,0.212-0.554c0.081-0.287,0.163-0.636,0.252-1.051c0.083-0.419,0.164-0.863,0.24-1.328
		c0.081-0.465,0.147-0.915,0.211-1.346c0.062-0.431,0.108-0.8,0.144-1.106c0.033-0.308,0.055-0.52,0.055-0.622
		c0-0.172-0.02-0.314-0.076-0.43c-0.055-0.117-0.151-0.179-0.293-0.185c-0.157-0.007-0.273,0.049-0.342,0.163
		c-0.068,0.117-0.137,0.334-0.191,0.656c-0.056,0.254-0.15,0.541-0.281,0.855c-0.13,0.32-0.286,0.642-0.478,0.97
		c-0.192,0.322-0.404,0.615-0.637,0.882c-0.539,0.62-1.159,1.099-1.857,1.436c-0.704,0.334-1.517,0.561-2.44,0.682
		c-0.922,0.124-1.995,0.185-3.205,0.178c-0.923,0-1.88-0.136-2.864-0.404c-0.983-0.268-1.961-0.675-2.924-1.209
		c-0.964-0.541-1.872-1.217-2.727-2.023c-0.861-0.813-1.612-1.756-2.275-2.841c-0.657-1.081-1.175-2.297-1.551-3.65
		c-0.377-1.353-0.568-2.843-0.574-4.469c-0.006-1.332,0.096-2.637,0.314-3.909c0.219-1.278,0.601-2.481,1.148-3.622
		c0.554-1.135,1.317-2.166,2.31-3.088c0.594-0.546,1.263-1.011,2.009-1.387c0.738-0.383,1.577-0.663,2.515-0.862
		c0.936-0.197,2.002-0.294,3.184-0.294c1.263,0.007,2.446,0.117,3.532,0.342c1.094,0.219,2.051,0.52,2.868,0.902
		c0.821,0.383,1.464,0.813,1.922,1.298c0.513,0.54,0.903,1.148,1.168,1.812c0.268,0.656,0.409,1.312,0.431,1.961
		c0,0.287,0.027,0.512,0.083,0.663c0.06,0.157,0.171,0.238,0.327,0.238c0.178,0,0.3-0.082,0.369-0.238
		c0.067-0.165,0.107-0.397,0.122-0.705c0.02-0.211,0.034-0.491,0.04-0.847c0.008-0.355,0.016-0.745,0.021-1.167
		c0.008-0.425,0.016-0.848,0.019-1.265c0.009-0.424,0.021-0.807,0.043-1.149c0.026-0.471,0.061-0.86,0.089-1.147
		c0.034-0.294,0.062-0.527,0.081-0.698c0.021-0.17,0.034-0.307,0.034-0.41c0-0.13-0.04-0.232-0.137-0.321
		c-0.095-0.096-0.251-0.15-0.478-0.17c-0.608-0.07-1.25-0.179-1.928-0.323c-0.67-0.136-1.393-0.267-2.174-0.376
		c-0.62-0.081-1.222-0.157-1.811-0.218c-0.595-0.061-1.216-0.111-1.879-0.145c-0.662-0.027-1.414-0.047-2.255-0.047
		c-2.028,0-3.834,0.177-5.419,0.526c-1.584,0.347-2.992,0.841-4.222,1.489c-1.237,0.65-2.337,1.422-3.315,2.331
		c-0.977,0.909-1.784,1.872-2.413,2.884c-0.628,1.011-1.115,2.029-1.463,3.04c-0.348,1.012-0.586,1.975-0.723,2.884
		c-0.138,0.909-0.206,1.723-0.198,2.426c-0.007,0.998,0.076,2.022,0.233,3.068c0.157,1.053,0.424,2.098,0.806,3.15
		c0.375,1.046,0.895,2.064,1.558,3.061c0.655,0.99,1.49,1.927,2.487,2.816c1.244,1.072,2.596,1.941,4.059,2.598
		c1.457,0.657,3.021,1.135,4.694,1.436C113.291,36.975,115.061,37.126,116.933,37.12L116.933,37.12z M78.715,23.793
		c-0.082,0-0.137-0.027-0.157-0.079c-0.028-0.056-0.028-0.125-0.006-0.206l3.771-10.087c0.02-0.088,0.055-0.171,0.095-0.246
		c0.041-0.077,0.088-0.117,0.151-0.123c0.061,0.006,0.102,0.047,0.137,0.123c0.026,0.075,0.048,0.157,0.067,0.246l3.691,10.126
		c0.02,0.062,0.02,0.123-0.007,0.172c-0.032,0.048-0.095,0.075-0.198,0.075L78.715,23.793L78.715,23.793z M87.039,25.845h-9.143
		c-0.103,0-0.178,0.021-0.233,0.067c-0.055,0.054-0.096,0.135-0.137,0.26l-2.215,5.863c-0.205,0.52-0.355,1.004-0.457,1.448
		c-0.104,0.442-0.158,0.801-0.158,1.053c-0.013,0.375,0.103,0.684,0.341,0.915c0.24,0.232,0.678,0.348,1.3,0.356h0.615
		c0.239,0,0.404,0.021,0.492,0.074c0.088,0.049,0.13,0.132,0.123,0.253c0,0.156-0.063,0.269-0.177,0.328
		c-0.124,0.054-0.294,0.082-0.521,0.082c-0.444,0-0.915-0.016-1.427-0.033c-0.505-0.021-1.011-0.034-1.518-0.056
		c-0.505-0.019-0.971-0.035-1.401-0.035c-0.116,0-0.334,0.008-0.649,0.021c-0.308,0.015-0.691,0.026-1.143,0.041
		c-0.444,0.016-0.929,0.027-1.455,0.042c-0.525,0.014-1.052,0.02-1.592,0.02c-0.268,0-0.464-0.027-0.588-0.082
		c-0.129-0.061-0.192-0.173-0.192-0.327c0-0.123,0.042-0.206,0.123-0.254c0.082-0.055,0.206-0.074,0.37-0.074
		c0.192,0,0.408-0.008,0.649-0.025c0.239-0.017,0.451-0.036,0.623-0.058c0.621-0.082,1.141-0.285,1.558-0.607
		s0.779-0.746,1.079-1.271c0.301-0.52,0.581-1.129,0.847-1.812L82.446,6.285c0.239-0.586,0.438-1.011,0.61-1.264
		c0.163-0.26,0.341-0.382,0.539-0.376c0.176-0.006,0.342,0.096,0.499,0.301c0.15,0.205,0.328,0.545,0.525,1.011
		c0.13,0.287,0.328,0.779,0.615,1.476c0.281,0.691,0.623,1.539,1.02,2.535c0.402,1.004,0.841,2.104,1.326,3.314
		c0.479,1.209,0.984,2.467,1.511,3.787c0.525,1.318,1.051,2.645,1.585,3.977c0.533,1.333,1.052,2.617,1.559,3.868
		c0.498,1.244,0.969,2.397,1.407,3.465c0.438,1.064,0.821,1.988,1.149,2.774c0.39,0.907,0.757,1.646,1.1,2.213
		c0.341,0.568,0.662,1.004,0.963,1.319c0.301,0.309,0.581,0.532,0.833,0.669c0.26,0.138,0.5,0.233,0.71,0.287
		c0.309,0.062,0.617,0.104,0.909,0.132c0.294,0.021,0.568,0.034,0.813,0.034c0.164-0.009,0.294,0.013,0.39,0.055
		c0.096,0.041,0.145,0.137,0.145,0.272c0.005,0.111-0.049,0.19-0.152,0.253c-0.11,0.061-0.301,0.102-0.573,0.124
		c-0.272,0.018-0.663,0.033-1.162,0.033c-0.5,0-1.149,0-1.934-0.007c-0.793,0-1.688-0.009-2.679-0.02
		c-0.992-0.007-2.036-0.027-3.135-0.056c-0.377-0.015-0.67-0.042-0.888-0.075c-0.228-0.034-0.334-0.116-0.342-0.253
		c0-0.123,0.041-0.205,0.136-0.259c0.089-0.056,0.232-0.09,0.438-0.11c0.157-0.042,0.28-0.148,0.37-0.314
		c0.095-0.17,0.095-0.375,0-0.628l-3.281-8.693c-0.042-0.103-0.097-0.178-0.157-0.22C87.223,25.865,87.142,25.845,87.039,25.845
		L87.039,25.845z M49.484,8.213c0-0.163,0.021-0.287,0.076-0.382c0.054-0.09,0.15-0.151,0.295-0.192
		c0.205-0.061,0.49-0.103,0.854-0.13c0.369-0.027,0.806-0.033,1.317-0.033c0.492-0.007,1.02,0.069,1.578,0.219
		c0.568,0.149,1.121,0.402,1.674,0.745c0.553,0.342,1.051,0.806,1.51,1.38c0.451,0.581,0.819,1.292,1.092,2.146
		c0.273,0.847,0.41,1.852,0.417,3.014c-0.006,1.114-0.123,2.078-0.355,2.89c-0.225,0.806-0.525,1.476-0.888,2.01
		c-0.369,0.538-0.758,0.949-1.176,1.25c-0.238,0.178-0.478,0.314-0.716,0.417c-0.24,0.103-0.534,0.178-0.875,0.219
		s-0.778,0.063-1.317,0.063c-0.343,0-0.706-0.014-1.073-0.041c-0.369-0.026-0.731-0.076-1.08-0.136
		c-0.355-0.061-0.671-0.137-0.963-0.232c-0.144-0.056-0.239-0.137-0.294-0.247c-0.054-0.109-0.077-0.271-0.077-0.491L49.484,8.213
		L49.484,8.213z M44.646,24.654c0,1.264,0,2.446-0.008,3.561c-0.006,1.107-0.026,2.098-0.053,2.979
		c-0.028,0.882-0.077,1.613-0.143,2.193c-0.048,0.396-0.117,0.759-0.199,1.08c-0.081,0.315-0.198,0.583-0.355,0.779
		c-0.15,0.206-0.363,0.343-0.636,0.396c-0.184,0.042-0.396,0.081-0.642,0.115c-0.245,0.027-0.526,0.049-0.833,0.049
		c-0.238,0-0.41,0.027-0.513,0.089c-0.096,0.054-0.143,0.136-0.143,0.238c0,0.144,0.068,0.247,0.211,0.315
		c0.137,0.062,0.343,0.096,0.609,0.096c0.417,0,0.875-0.007,1.367-0.021c0.491-0.014,0.977-0.026,1.456-0.041
		c0.486-0.015,0.915-0.026,1.298-0.04c0.39-0.015,0.684-0.021,0.882-0.021c0.165,0,0.451,0.007,0.869,0.021s0.908,0.025,1.481,0.04
		c0.575,0.015,1.183,0.027,1.818,0.041c0.636,0.016,1.258,0.021,1.86,0.021c0.267,0,0.471-0.034,0.608-0.096
		c0.143-0.068,0.212-0.172,0.212-0.315c0-0.102-0.041-0.185-0.123-0.238c-0.082-0.062-0.205-0.089-0.369-0.089
		c-0.17,0-0.368-0.009-0.601-0.02c-0.231-0.021-0.479-0.041-0.724-0.063c-0.247-0.026-0.471-0.055-0.683-0.082
		c-0.403-0.054-0.718-0.19-0.936-0.395c-0.218-0.198-0.369-0.466-0.465-0.78c-0.095-0.321-0.165-0.683-0.198-1.08
		c-0.068-0.58-0.115-1.312-0.143-2.193c-0.027-0.881-0.048-1.878-0.055-2.991c-0.006-1.114-0.006-2.31-0.006-3.588v-0.575
		c0-0.123,0.026-0.204,0.089-0.259c0.054-0.048,0.136-0.068,0.238-0.068l3.566,0.081c0.143-0.005,0.281,0.014,0.404,0.048
		c0.123,0.041,0.232,0.115,0.334,0.239c0.137,0.157,0.349,0.438,0.628,0.826c0.28,0.391,0.609,0.855,0.985,1.387
		c0.376,0.534,0.778,1.1,1.195,1.694c0.417,0.595,0.84,1.176,1.25,1.751c0.759,1.053,1.457,1.968,2.084,2.753
		c0.629,0.787,1.23,1.454,1.804,1.995c0.575,0.54,1.148,0.964,1.729,1.278c0.348,0.191,0.717,0.342,1.1,0.459
		c0.389,0.116,0.84,0.197,1.366,0.245c0.525,0.049,1.161,0.076,1.92,0.076h3.895c0.247,0,0.438-0.027,0.574-0.082
		c0.138-0.061,0.207-0.173,0.207-0.328c0-0.103-0.041-0.184-0.124-0.237c-0.082-0.063-0.205-0.09-0.368-0.09
		c-0.165,0-0.342-0.007-0.525-0.027c-0.191-0.021-0.397-0.056-0.623-0.096c-0.156-0.028-0.375-0.076-0.655-0.151
		c-0.281-0.081-0.616-0.211-1.011-0.396c-0.39-0.191-0.834-0.465-1.327-0.818c-0.492-0.357-1.024-0.837-1.598-1.423
		c-1.204-1.279-2.529-2.816-3.984-4.627c-1.463-1.804-3.095-3.86-4.915-6.156c1.374-1.114,2.454-2.18,3.247-3.199
		c0.792-1.025,1.353-2.023,1.682-3.007c0.333-0.978,0.491-1.975,0.484-2.979c-0.006-0.69-0.096-1.333-0.273-1.927
		c-0.177-0.595-0.409-1.134-0.689-1.619c-0.28-0.485-0.581-0.902-0.903-1.251c-0.324-0.349-0.631-0.623-0.924-0.821
		c-0.745-0.499-1.531-0.875-2.364-1.134c-0.834-0.253-1.688-0.424-2.57-0.514c-0.874-0.081-1.742-0.123-2.61-0.115
		c-0.328,0-0.739,0.005-1.245,0.019c-0.499,0.007-1.031,0.029-1.598,0.042c-0.568,0.014-1.107,0.028-1.627,0.041
		c-0.52,0.014-0.957,0.021-1.312,0.021c-0.218,0-0.534-0.007-0.936-0.021c-0.404-0.013-0.861-0.027-1.381-0.041
		c-0.52-0.014-1.06-0.034-1.626-0.042c-0.567-0.013-1.128-0.019-1.675-0.019c-0.307-0.006-0.532,0.019-0.683,0.075
		c-0.143,0.055-0.217,0.15-0.217,0.293c0,0.138,0.061,0.24,0.176,0.294c0.124,0.046,0.295,0.073,0.52,0.073
		c0.301,0,0.594,0.006,0.896,0.029c0.294,0.02,0.533,0.055,0.704,0.095c0.444,0.088,0.792,0.231,1.038,0.423
		c0.246,0.185,0.425,0.437,0.534,0.752c0.103,0.308,0.171,0.697,0.191,1.161c0.014,0.252,0.027,0.526,0.041,0.806
		c0.008,0.287,0.021,0.63,0.028,1.025c0,0.396,0.006,0.896,0.006,1.483c0.008,0.594,0.008,1.333,0.008,2.207
		c0,0.875,0,1.934,0,3.171v7.217H44.646z M20.333,24.654c0,1.264,0,2.446-0.006,3.561c-0.006,1.107-0.026,2.098-0.054,2.979
		c-0.027,0.882-0.076,1.613-0.144,2.193c-0.055,0.603-0.164,1.108-0.334,1.512s-0.452,0.656-0.855,0.744
		c-0.185,0.042-0.396,0.081-0.641,0.115c-0.246,0.027-0.527,0.049-0.834,0.049c-0.239,0-0.411,0.027-0.512,0.089
		c-0.097,0.054-0.144,0.136-0.144,0.238c0,0.144,0.068,0.247,0.211,0.315c0.137,0.062,0.343,0.096,0.609,0.096
		c0.417,0,0.875-0.007,1.367-0.021c0.49-0.014,0.99-0.026,1.475-0.041c0.492-0.015,0.944-0.026,1.353-0.04
		c0.404-0.015,0.731-0.021,0.97-0.021c0.391,0,0.917,0.016,1.579,0.034c0.663,0.02,1.408,0.033,2.241,0.055
		c0.834,0.02,1.709,0.034,2.617,0.034c0.233,0,0.417-0.034,0.56-0.097c0.144-0.067,0.212-0.17,0.218-0.314
		c0-0.102-0.054-0.184-0.157-0.239c-0.109-0.06-0.272-0.088-0.499-0.088c-0.205,0-0.437-0.008-0.69-0.021
		c-0.246-0.02-0.493-0.041-0.739-0.062c-0.246-0.026-0.464-0.054-0.663-0.081c-0.403-0.054-0.717-0.184-0.936-0.39
		c-0.217-0.205-0.368-0.465-0.464-0.779c-0.096-0.308-0.163-0.663-0.198-1.046c-0.069-0.595-0.116-1.332-0.144-2.222
		c-0.026-0.888-0.048-1.883-0.054-2.992c-0.007-1.112-0.007-2.294-0.007-3.56V7.844l5.166,0.122c1.209,0.035,2.16,0.164,2.856,0.396
		c0.705,0.226,1.203,0.512,1.503,0.847c0.301,0.341,0.464,0.69,0.479,1.053l0.041,0.45c0.02,0.3,0.055,0.512,0.116,0.642
		c0.069,0.123,0.178,0.178,0.334,0.178c0.125,0,0.206-0.061,0.26-0.178c0.056-0.109,0.09-0.272,0.11-0.478
		c0-0.281,0.007-0.635,0.021-1.073c0.012-0.438,0.027-0.902,0.042-1.379c0.013-0.486,0.026-0.937,0.041-1.346
		c0.014-0.411,0.019-0.731,0.019-0.957c0.006-0.308-0.013-0.525-0.054-0.663c-0.042-0.136-0.137-0.197-0.273-0.197
		c-0.081,0-0.206,0.02-0.383,0.055c-0.178,0.042-0.417,0.089-0.724,0.15c-0.301,0.042-0.69,0.088-1.155,0.13
		c-0.458,0.048-1.019,0.067-1.674,0.075H15.946c-0.451,0-0.923-0.007-1.401-0.027c-0.478-0.014-0.95-0.041-1.408-0.068
		c-0.457-0.034-0.888-0.068-1.291-0.11c-0.335-0.034-0.615-0.089-0.841-0.164c-0.219-0.075-0.402-0.15-0.546-0.219
		c-0.143-0.07-0.266-0.104-0.376-0.11c-0.123,0-0.219,0.062-0.294,0.192c-0.076,0.122-0.136,0.32-0.198,0.586
		C9.572,5.83,9.539,6.012,9.469,6.308C9.408,6.602,9.34,6.956,9.258,7.366c-0.091,0.41-0.165,0.827-0.247,1.251
		C8.929,9.04,8.868,9.424,8.813,9.758c-0.054,0.333-0.081,0.568-0.081,0.711c0,0.226,0.02,0.391,0.075,0.5
		c0.055,0.102,0.15,0.157,0.293,0.157c0.124,0,0.219-0.041,0.288-0.124c0.069-0.081,0.123-0.205,0.164-0.369
		c0.041-0.165,0.117-0.369,0.227-0.608c0.11-0.247,0.268-0.519,0.472-0.827c0.196-0.302,0.456-0.527,0.779-0.691
		c0.313-0.165,0.73-0.281,1.25-0.356c0.511-0.074,1.161-0.123,1.947-0.144l6.107-0.163V24.654z"/>
	<path fill="#2A6AA6" d="M177.628,23.716l1.001-7.671h0.165c0.292,0.621,0.606,1.306,0.956,2.043
		c0.348,0.737,0.705,1.489,1.059,2.241c0.356,0.751,0.69,1.462,1.005,2.126c0.216,0.47,0.412,0.888,0.588,1.261h5.499l-8.614-17.799
		c-0.177-0.348-0.328-0.62-0.451-0.806c-0.123-0.185-0.239-0.308-0.341-0.375c-0.103-0.063-0.206-0.096-0.315-0.09
		c-0.164,0-0.307,0.09-0.424,0.273c-0.122,0.177-0.211,0.444-0.273,0.792l-2.733,18.003h2.88V23.716z M195.763,23.716l3.901-8.122
		h0.164l1.107,8.122h4.956l-2.621-17.798c-0.061-0.429-0.149-0.751-0.273-0.957c-0.123-0.212-0.28-0.315-0.464-0.315
		c-0.177,0-0.334,0.082-0.465,0.247c-0.13,0.164-0.28,0.41-0.437,0.738l-8.614,18.085H195.763L195.763,23.716z M103.923,23.716
		c-0.231-1.106-0.35-2.297-0.356-3.57c-0.007-1.332,0.097-2.637,0.315-3.909c0.218-1.278,0.602-2.48,1.149-3.622
		c0.554-1.135,1.316-2.166,2.309-3.089c0.594-0.546,1.264-1.011,2.01-1.386c0.737-0.384,1.578-0.663,2.514-0.862
		c0.937-0.198,2.003-0.293,3.185-0.293c1.263,0.006,2.445,0.116,3.531,0.342c1.093,0.219,2.051,0.52,2.87,0.902
		c0.819,0.383,1.462,0.813,1.92,1.299c0.514,0.539,0.902,1.148,1.168,1.812c0.268,0.655,0.411,1.311,0.432,1.961
		c0,0.286,0.026,0.512,0.081,0.663c0.062,0.157,0.172,0.238,0.328,0.238c0.177,0,0.302-0.08,0.368-0.238
		c0.067-0.164,0.11-0.397,0.123-0.704c0.02-0.211,0.034-0.492,0.041-0.847c0.008-0.355,0.015-0.745,0.021-1.169
		c0.007-0.424,0.014-0.848,0.02-1.264c0.007-0.425,0.02-0.807,0.041-1.15c0.027-0.47,0.06-0.86,0.09-1.147
		c0.033-0.293,0.061-0.525,0.082-0.696c0.019-0.171,0.033-0.308,0.033-0.411c0-0.13-0.041-0.231-0.136-0.321
		c-0.096-0.096-0.254-0.151-0.48-0.171c-0.607-0.069-1.249-0.179-1.926-0.322c-0.671-0.137-1.395-0.267-2.173-0.375
		c-0.623-0.082-1.223-0.157-1.813-0.218c-0.594-0.062-1.216-0.111-1.878-0.145c-0.663-0.028-1.414-0.047-2.255-0.047
		c-2.03,0-3.834,0.177-5.42,0.526c-1.584,0.348-2.992,0.841-4.222,1.489c-1.237,0.65-2.337,1.422-3.315,2.331
		c-0.977,0.908-1.784,1.872-2.413,2.884c-0.627,1.011-1.113,2.03-1.462,3.04c-0.348,1.012-0.586,1.975-0.723,2.884
		c-0.138,0.909-0.206,1.723-0.199,2.427c-0.007,0.997,0.076,2.022,0.233,3.069l0.014,0.092H103.923L103.923,23.716z M78.559,23.716
		l-0.001-0.002c-0.028-0.056-0.028-0.125-0.006-0.206l3.771-10.087c0.02-0.088,0.055-0.171,0.095-0.246
		c0.041-0.077,0.088-0.117,0.151-0.123c0.061,0.006,0.102,0.047,0.137,0.123c0.026,0.075,0.048,0.157,0.067,0.246l3.691,10.126
		c0.02,0.061,0.02,0.121-0.004,0.168h5.287c-0.351-0.871-0.709-1.758-1.073-2.669c-0.534-1.333-1.06-2.658-1.586-3.977
		c-0.526-1.319-1.031-2.577-1.51-3.787c-0.485-1.209-0.923-2.309-1.325-3.314c-0.397-0.997-0.739-1.845-1.02-2.535
		c-0.287-0.696-0.485-1.188-0.615-1.476c-0.198-0.465-0.375-0.807-0.526-1.011c-0.156-0.206-0.322-0.308-0.499-0.301
		c-0.2-0.006-0.376,0.116-0.54,0.376c-0.172,0.253-0.37,0.677-0.609,1.264l-6.965,17.43H78.559L78.559,23.716z M49.484,8.213
		c0-0.163,0.021-0.287,0.076-0.382c0.054-0.09,0.15-0.151,0.295-0.192c0.205-0.061,0.49-0.103,0.854-0.13
		c0.369-0.027,0.806-0.033,1.317-0.033c0.492-0.007,1.02,0.069,1.578,0.219c0.568,0.149,1.121,0.402,1.674,0.745
		c0.553,0.342,1.051,0.806,1.51,1.38c0.451,0.581,0.819,1.292,1.092,2.146c0.273,0.847,0.41,1.852,0.417,3.014
		c-0.006,1.114-0.123,2.078-0.355,2.89c-0.225,0.806-0.525,1.476-0.888,2.01c-0.369,0.538-0.758,0.949-1.176,1.25
		c-0.238,0.178-0.478,0.314-0.716,0.417c-0.24,0.103-0.534,0.178-0.875,0.219s-0.778,0.063-1.317,0.063
		c-0.343,0-0.706-0.014-1.073-0.041c-0.369-0.026-0.731-0.076-1.08-0.136c-0.355-0.061-0.671-0.137-0.963-0.232
		c-0.144-0.056-0.239-0.137-0.294-0.247c-0.054-0.109-0.077-0.271-0.077-0.491L49.484,8.213L49.484,8.213z M49.749,23.716
		c0.02-0.002,0.041-0.002,0.062-0.002l0.124,0.002h9.059l-1.27-1.603c1.375-1.114,2.454-2.179,3.247-3.198
		c0.792-1.025,1.353-2.023,1.681-3.006c0.334-0.978,0.492-1.975,0.485-2.98c-0.006-0.69-0.097-1.333-0.273-1.927
		c-0.177-0.596-0.409-1.135-0.69-1.62c-0.279-0.484-0.581-0.902-0.903-1.25c-0.321-0.349-0.627-0.622-0.922-0.82
		c-0.744-0.499-1.53-0.875-2.364-1.134c-0.834-0.253-1.688-0.424-2.57-0.514c-0.874-0.081-1.742-0.123-2.61-0.115
		c-0.328,0-0.738,0.005-1.244,0.019c-0.499,0.008-1.032,0.029-1.598,0.042c-0.568,0.014-1.107,0.028-1.627,0.041
		c-0.52,0.014-0.957,0.021-1.312,0.021c-0.219,0-0.534-0.007-0.936-0.021c-0.404-0.013-0.862-0.027-1.38-0.041
		c-0.521-0.014-1.06-0.034-1.627-0.042c-0.567-0.013-1.128-0.019-1.674-0.019c-0.307-0.006-0.532,0.019-0.683,0.075
		c-0.143,0.055-0.217,0.15-0.217,0.293c0,0.138,0.06,0.24,0.176,0.294c0.124,0.046,0.295,0.073,0.519,0.073
		c0.301,0,0.594,0.007,0.896,0.029c0.294,0.02,0.533,0.055,0.705,0.095c0.443,0.088,0.792,0.232,1.038,0.424
		c0.246,0.185,0.425,0.437,0.534,0.752c0.103,0.307,0.171,0.697,0.191,1.161c0.015,0.252,0.027,0.526,0.041,0.806
		c0.007,0.287,0.021,0.63,0.028,1.025c0,0.396,0.006,0.896,0.006,1.483c0.008,0.594,0.008,1.333,0.008,2.207
		c0,0.875,0,1.934,0,3.171v6.276h5.103V23.716z M25.459,23.716V7.844l5.166,0.122c1.209,0.035,2.16,0.164,2.856,0.396
		c0.705,0.226,1.203,0.512,1.503,0.847c0.301,0.341,0.464,0.69,0.479,1.053l0.041,0.45c0.02,0.3,0.055,0.512,0.116,0.642
		c0.069,0.123,0.177,0.178,0.334,0.178c0.125,0,0.206-0.061,0.26-0.178c0.056-0.109,0.09-0.272,0.11-0.478
		c0-0.281,0.007-0.635,0.021-1.073c0.013-0.438,0.027-0.902,0.042-1.379c0.014-0.486,0.026-0.937,0.042-1.346
		c0.014-0.411,0.019-0.731,0.019-0.957c0.006-0.308-0.014-0.525-0.054-0.663c-0.042-0.136-0.137-0.197-0.273-0.197
		c-0.082,0-0.206,0.02-0.383,0.055c-0.178,0.042-0.417,0.089-0.724,0.15c-0.301,0.042-0.69,0.088-1.155,0.13
		c-0.458,0.048-1.019,0.067-1.674,0.075H15.946c-0.451,0-0.923-0.007-1.401-0.027c-0.478-0.014-0.95-0.041-1.408-0.068
		c-0.457-0.034-0.888-0.068-1.291-0.11c-0.335-0.034-0.615-0.089-0.841-0.164c-0.219-0.075-0.402-0.15-0.546-0.219
		c-0.143-0.07-0.266-0.104-0.376-0.11c-0.123,0-0.219,0.062-0.294,0.192c-0.076,0.122-0.136,0.32-0.198,0.586
		C9.572,5.83,9.539,6.012,9.469,6.308C9.408,6.602,9.34,6.956,9.258,7.366c-0.091,0.41-0.165,0.827-0.247,1.251
		C8.929,9.04,8.868,9.424,8.813,9.758c-0.054,0.333-0.081,0.568-0.081,0.711c0,0.226,0.02,0.391,0.075,0.5
		c0.055,0.102,0.15,0.157,0.293,0.157c0.124,0,0.219-0.041,0.288-0.124c0.069-0.081,0.123-0.205,0.164-0.369
		c0.041-0.165,0.117-0.369,0.227-0.608c0.11-0.247,0.268-0.519,0.472-0.827c0.196-0.302,0.456-0.527,0.779-0.691
		c0.313-0.165,0.73-0.281,1.25-0.356c0.511-0.074,1.161-0.123,1.947-0.144l6.107-0.163v15.871H25.459L25.459,23.716z"/>
	<g>
		<path fill="#005596" d="M131.275,17.101c0.056-1.542,3.161-2.821,3.161-2.821l-0.271,3.003c0,0-0.76-0.591-1.557,0.323
			C131.953,17.739,131.476,17.444,131.275,17.101z"/>
		<path fill="#005596" d="M133.261,21.941c0,0-2.729,1.791-1.219,4.27l0.702,0.404c0,0,0.081-1.665,0.853-2.421L133.261,21.941z"/>
		
			<radialGradient id="SVGID_1_" cx="192.9868" cy="551.3564" r="19.6652" gradientTransform="matrix(1 0 0 1 -42.04 -530.8125)" gradientUnits="userSpaceOnUse">
			<stop  offset="0" style="stop-color:#EFEFF0"/>
			<stop  offset="1" style="stop-color:#807F83"/>
		</radialGradient>
		<path fill="url(#SVGID_1_)" d="M150.947,38.372c9.82,0,17.828-8.009,17.828-17.828c0-9.82-8.008-17.829-17.828-17.829
			s-17.829,8.008-17.829,17.829C133.118,30.363,141.126,38.372,150.947,38.372z"/>
		
			<linearGradient id="SVGID_2_" gradientUnits="userSpaceOnUse" x1="176.0718" y1="551.5137" x2="200.2203" y2="541.7571" gradientTransform="matrix(1 0 0 1 -42.04 -530.8125)">
			<stop  offset="0" style="stop-color:#FFFFFF"/>
			<stop  offset="1" style="stop-color:#005596"/>
		</linearGradient>
		<path fill="url(#SVGID_2_)" d="M131.239,17.36c0.11,0.192,0.469,0.504,1.093,0.442c3.134-0.308,13.41-3.7,21.015-8.014
			c-0.359-0.566-0.513-1.286-0.513-1.286l8.064,0.668l-4.367,7.04l-0.564-1.337c0,0-8.017,3.494-12.947,4.984
			c-4.933,1.489-11.14,2.799-12.064,1L131.239,17.36z"/>
		
			<linearGradient id="SVGID_3_" gradientUnits="userSpaceOnUse" x1="177.6987" y1="560.126" x2="208.0019" y2="547.8827" gradientTransform="matrix(1 0 0 1 -42.04 -530.8125)">
			<stop  offset="0" style="stop-color:#FFFFFF"/>
			<stop  offset="1" style="stop-color:#005596"/>
		</linearGradient>
		<path fill="url(#SVGID_3_)" d="M133.221,29.305c3.213,3.766,12.563-0.349,17.689-2.14c5.13-1.792,12.314-5.437,12.314-5.437
			l0.613,1.017l3.595-6.719l-7.626,0.286l0.788,1.017c0,0-1.531,1.203-7.973,4.136c-6.444,2.931-12.802,5.05-16.659,5.538
			c-3.859,0.489-4.296-0.896-4.296-0.896S132.865,28.887,133.221,29.305z"/>
	</g>
	<path fill="#807F83" d="M17.494,50.006v-1.561c0.528,0.329,0.974,0.557,1.337,0.688c0.363,0.13,0.713,0.195,1.057,0.195
		s0.604-0.054,0.782-0.157c0.177-0.106,0.266-0.262,0.266-0.47c0-0.169-0.055-0.303-0.167-0.405
		c-0.11-0.102-0.368-0.224-0.772-0.365c-0.999-0.35-1.688-0.709-2.063-1.074c-0.376-0.365-0.564-0.835-0.564-1.402
		c0-0.598,0.245-1.084,0.734-1.459c0.491-0.375,1.129-0.562,1.916-0.562c0.398,0,0.796,0.049,1.198,0.146
		c0.401,0.097,0.798,0.239,1.188,0.427v1.44c-0.471-0.237-0.895-0.412-1.27-0.524c-0.374-0.115-0.715-0.173-1.022-0.173
		c-0.334,0-0.59,0.048-0.765,0.146c-0.176,0.098-0.264,0.236-0.264,0.416c0,0.147,0.079,0.284,0.237,0.414
		c0.155,0.128,0.394,0.25,0.712,0.367c0.066,0.026,0.168,0.064,0.305,0.114c0.669,0.249,1.148,0.462,1.44,0.637
		c0.304,0.188,0.535,0.429,0.689,0.723c0.155,0.294,0.233,0.638,0.233,1.032c0,0.648-0.246,1.159-0.735,1.531
		c-0.49,0.37-1.169,0.555-2.039,0.555c-0.434,0-0.855-0.056-1.262-0.172C18.26,50.405,17.869,50.233,17.494,50.006L17.494,50.006z
		 M30.586,50.564v-7.021h4.691v1.294h-2.934v1.431h2.803v1.304h-2.803v1.675h3.02v1.315h-4.776V50.564z M45.977,46.426
		c0.325,0,0.566-0.068,0.726-0.204s0.237-0.341,0.237-0.619c0-0.265-0.082-0.465-0.247-0.604c-0.167-0.138-0.405-0.208-0.716-0.208
		h-0.843v1.635H45.977L45.977,46.426z M43.375,50.564v-7.021h2.592c0.953,0,1.658,0.167,2.113,0.497
		c0.453,0.33,0.68,0.845,0.68,1.54c0,0.388-0.101,0.718-0.301,0.995c-0.199,0.276-0.506,0.511-0.923,0.701
		c0.175,0.063,0.331,0.17,0.47,0.318c0.138,0.149,0.26,0.336,0.364,0.565l1.119,2.403h-1.981l-0.892-2.023
		c-0.144-0.319-0.308-0.542-0.493-0.66c-0.183-0.121-0.445-0.183-0.782-0.183c-0.025,0-0.062,0.003-0.105,0.007
		c-0.044,0.004-0.077,0.006-0.101,0.006v2.854L43.375,50.564L43.375,50.564z M59.192,50.624l-3.186-7.079h1.883l1.735,4.078
		l1.851-4.078h1.9l-3.421,7.079H59.192L59.192,50.624z M70.754,50.564v-7.021h1.812v7.021H70.754L70.754,50.564z M86.97,49.977
		c-0.422,0.241-0.853,0.42-1.294,0.539c-0.442,0.115-0.905,0.173-1.389,0.173c-0.55,0-1.053-0.083-1.514-0.249
		c-0.459-0.169-0.861-0.415-1.206-0.74c-0.354-0.336-0.625-0.733-0.809-1.186c-0.188-0.449-0.278-0.934-0.278-1.452
		c0-1.092,0.362-1.969,1.09-2.637c0.728-0.667,1.689-1,2.882-1c0.427,0,0.846,0.047,1.251,0.14c0.407,0.096,0.81,0.238,1.207,0.433
		v1.646c-0.389-0.253-0.775-0.439-1.169-0.562c-0.391-0.126-0.783-0.187-1.174-0.187c-0.709,0-1.268,0.192-1.673,0.577
		c-0.406,0.386-0.61,0.915-0.61,1.592c0,0.654,0.193,1.18,0.583,1.569c0.387,0.393,0.909,0.586,1.565,0.586
		c0.421,0,0.843-0.072,1.269-0.222c0.426-0.148,0.847-0.369,1.269-0.66V49.977L86.97,49.977z M94.857,50.564v-7.021h4.69v1.294
		h-2.936v1.431h2.805v1.304h-2.805v1.675h3.021v1.315h-4.775V50.564z M107.494,50.006v-1.561c0.529,0.329,0.974,0.557,1.338,0.688
		c0.364,0.13,0.712,0.195,1.057,0.195c0.345,0,0.604-0.054,0.783-0.157c0.177-0.106,0.265-0.262,0.265-0.47
		c0-0.169-0.055-0.303-0.166-0.405c-0.11-0.102-0.367-0.224-0.772-0.365c-1-0.35-1.689-0.709-2.063-1.074
		c-0.377-0.365-0.564-0.835-0.564-1.402c0-0.598,0.244-1.084,0.733-1.459c0.492-0.375,1.128-0.562,1.916-0.562
		c0.397,0,0.796,0.049,1.199,0.146c0.4,0.097,0.797,0.239,1.188,0.427v1.44c-0.472-0.237-0.894-0.412-1.269-0.524
		c-0.375-0.115-0.715-0.173-1.025-0.173c-0.333,0-0.588,0.048-0.765,0.146c-0.175,0.098-0.263,0.236-0.263,0.416
		c0,0.147,0.079,0.284,0.236,0.414c0.157,0.128,0.395,0.25,0.713,0.367c0.068,0.026,0.169,0.064,0.304,0.114
		c0.67,0.249,1.15,0.462,1.441,0.637c0.305,0.188,0.534,0.429,0.69,0.723c0.155,0.294,0.233,0.638,0.233,1.032
		c0,0.648-0.247,1.159-0.736,1.531c-0.488,0.37-1.168,0.555-2.038,0.555c-0.436,0-0.856-0.056-1.262-0.172
		C108.259,50.405,107.869,50.233,107.494,50.006L107.494,50.006z M129,50.564v-7.021h1.756v5.666h3.024v1.354H129L129,50.564z
		 M141.467,50.564v-7.021h1.812v7.021H141.467L141.467,50.564z M151.54,50.564v-7.021h1.551l2.253,2.825l2.262-2.825h1.55v7.021
		h-1.727V46.22l-2.085,2.568l-2.066-2.568v4.345H151.54L151.54,50.564z M167.429,50.564v-7.021h1.812v7.021H167.429L167.429,50.564z
		 M179.207,50.564V44.85h-2.324v-1.305h6.496v1.305h-2.323v5.715H179.207L179.207,50.564z M190.984,50.564v-7.021h4.69v1.294h-2.936
		v1.431h2.805v1.304h-2.805v1.675h3.021v1.315h-4.776V50.564z M205.485,44.965v4.18h1.311c0.595,0,1.081-0.194,1.456-0.584
		c0.376-0.392,0.563-0.896,0.563-1.51c0-0.613-0.188-1.116-0.563-1.504c-0.375-0.389-0.863-0.583-1.456-0.583L205.485,44.965
		L205.485,44.965z M203.731,50.564v-7.021h2.634c0.752,0,1.336,0.057,1.751,0.172c0.415,0.114,0.796,0.302,1.144,0.562
		c0.448,0.337,0.788,0.743,1.019,1.212c0.232,0.47,0.347,0.992,0.347,1.563c0,0.624-0.141,1.194-0.421,1.702
		c-0.281,0.512-0.686,0.936-1.219,1.277c-0.301,0.191-0.635,0.327-0.998,0.409c-0.363,0.081-0.904,0.123-1.621,0.123H203.731
		L203.731,50.564z"/>
	<polygon fill="#FFFFFF" points="82.419,13.176 78.558,23.712 86.459,23.716 	"/>
</g>
</svg>
