<?xml version="1.0" standalone="no"?><svg xmlns="http://www.w3.org/2000/svg" viewBox="0 0 1440 320"><path fill="#f5f5f5" fill-opacity="1" d="M0,32L40,69.3C80,107,160,181,240,224C320,267,400,277,480,266.7C560,256,640,224,720,186.7C800,149,880,107,960,112C1040,117,1120,171,1200,202.7C1280,235,1360,245,1400,250.7L1440,256L1440,320L1400,320C1360,320,1280,320,1200,320C1120,320,1040,320,960,320C880,320,800,320,720,320C640,320,560,320,480,320C400,320,320,320,240,320C160,320,80,320,40,320L0,320Z"></path></svg>